<?xml version="1.0" encoding="utf-8"?>
<?xml-stylesheet type="text/xsl" href="rss1.xsl"?>
<rss version="2.0" xmlns:atom="http://www.w3.org/2005/Atom" xmlns:content="http://purl.org/rss/1.0/modules/content/" xmlns:dc="http://purl.org/dc/elements/1.1/" xmlns:media="http://search.yahoo.com/mrss/">
<channel>
 <title>Getty</title>
 <link>http://www.gettyimg.com/</link>
 <atom:link href="http://www.gettyimg.com/" rel="self" type="application/rss+xml" />

 
                <item>
                <title><![CDATA[【HD Live Performances】UPSCALE - Avril Lavigne - He Wasn't (Popworld Live) 1080P Upscaled]]></title>
                <link><![CDATA[https://sharemania.us/threads/avril-lavigne-he-wasnt-popworld-live-1080p-upscaled.234481/]]></link>
                <description><![CDATA[<article>
<blockquote class="messageText SelectQuoteContainer ugc baseHtml">
<img src="https://i.imgur.com/h1UuINa.png" class="bbCodeImage LbImage" alt="[​IMG]" data-url="https://i.imgur.com/h1UuINa.png" style=""> <img src="https://i.imgur.com/sjmpUsv.png" class="bbCodeImage LbImage" alt="[​IMG]" data-url="https://i.imgur.com/sjmpUsv.png" style=""> <img src="https://i.imgur.com/vLb56H4.png" class="bbCodeImage LbImage" alt="[​IMG]" data-url="https://i.imgur.com/vLb56H4.png" style=""> <img src="https://i.imgur.com/Nva9UUW.png" class="bbCodeImage LbImage" alt="[​IMG]" data-url="https://i.imgur.com/Nva9UUW.png" style=""> <br>
<div class="ToggleTriggerAnchor bbCodeSpoilerContainer">
<button type="button" class="button bbCodeSpoilerButton ToggleTrigger Tooltip JsOnly" data-target="> .SpoilerTarget"><span>Spoiler: <span class="SpoilerTitle">MediaInfo</span></span></button>
<div class="SpoilerTarget bbCodeSpoilerText">General<br>
File size : 532 MiB<br>
Duration : 3 min 4 s<br>
Overall bit rate : 24.2 Mb/s<br>
<br>
Video<br>
ID : 1<br>
Format : HEVC<br>
Format/Info : High Efficiency Video Coding<br>
Format profile : Main@L6.2@Main<br>
Codec ID : V_MPEGH/ISO/HEVC<br>
Duration : 3 min 3 s<br>
Bit rate : 23.5 Mb/s<br>
Width : 1 920 pixels<br>
Height : 1 080 pixels<br>
Display aspect ratio : 1.896<br>
Frame rate mode : Constant<br>
Frame rate : 25.000 FPS<br>
Color space : YUV<br>
Chroma subsampling : 4:2:0<br>
Bit depth : 8 bits<br>
Scan type : Interlaced<br>
Scan type, store method : Interleaved fields<br>
Scan order : Top Field First<br>
Bits/(Pixel*Frame) : 0.453<br>
Stream size : 515 MiB (97%)<br>
Writing library : Lavc60.27.101 hevc_amf<br>
Default : No<br>
Forced : No<br>
Color range : Limited<br>
Transfer characteristics : BT.709<br>
Matrix coefficients : BT.709<br>
<br>
Audio<br>
ID : 2<br>
Format : AC-3<br>
Format/Info : Audio Coding 3<br>
Commercial name : Dolby Digital<br>
Codec ID : A_AC3<br>
Duration : 3 min 3 s<br>
Bit rate mode : Constant<br>
Bit rate : 256 kb/s<br>
Channel(s) : 2 channels<br>
Channel layout : L R<br>
Sampling rate : 48.0 kHz<br>
Frame rate : 31.250 FPS (1536 SPF)<br>
Bit depth : 32 bits<br>
Compression mode : Lossy<br>
Delay relative to video : -240 ms<br>
Stream size : 5.61 MiB (1%)<br>
Service kind : Complete Main<br>
Default : No<br>
Forced : No</div>
</div><br>
<div class="bbCodeBlock bbCodeVfcHH HiddenContent">
<div class="attribution type">Hidden Content:</div>
<blockquote>You must reply before you can see the hidden data contained here.</blockquote>
</div>
<div class="messageTextEndMarker">&nbsp;</div>
</blockquote>
</article>]]></description>
                <author><![CDATA[Avril1255]]></author>
                </item>

                </channel></rss>